<svg xmlns="http://www.w3.org/2000/svg" width="888" height="200" viewBox="0 0 888 200">
  <path fill="none" d="M311.721 154.013h480.28v33.703h-480.28z"/>
  <path fill="#88C0D0" d="M205.832 149.552h1.38l22.451 31.697h.092v-31.697h.92V182.4h-1.38l-22.45-31.697h-.092V182.4h-.92v-32.848zm39.285 8.648c6.901 0 10.627 5.936 10.627 12.375 0 6.486-3.726 12.375-10.673 12.375-6.901 0-10.627-5.889-10.627-12.375-.001-6.439 3.726-12.375 10.673-12.375zm0 23.83c6.303 0 9.707-5.475 9.707-11.455 0-5.889-3.404-11.455-9.707-11.455-6.395 0-9.753 5.566-9.753 11.455 0 5.981 3.358 11.455 9.753 11.455zm15.362.369h-.92v-23.646h.92v5.842h.092c.874-3.496 3.634-6.578 9.293-6.395v.92c-6.487-.322-9.385 4.738-9.385 9.891v13.388zm29.396-32.847h.92V182.4h-.92v-6.625h-.092c-1.196 4.141-4.646 7.176-9.477 7.176-6.257 0-10.075-5.197-10.075-12.328 0-6.625 3.542-12.422 10.075-12.422 5.015 0 8.373 2.898 9.477 7.178h.092v-15.827zm-9.569 9.568c-6.487 0-9.155 6.027-9.155 11.502 0 6.072 3.037 11.408 9.155 11.408 6.073 0 9.569-5.289 9.569-11.408 0-7.314-3.818-11.502-9.569-11.502z"/>
  <path fill="#2E3440" d="M306.11 149.552h3.358l10.673 29.396h.092l10.581-29.396h3.313L321.936 182.4h-3.635l-12.191-32.848zm30.681 0h2.898v4.646h-2.898v-4.646zm0 9.109h2.898v23.738h-2.898v-23.738zm22.68 6.945c-.138-3.588-2.898-5.197-6.211-5.197-2.576 0-5.611 1.012-5.611 4.094 0 2.576 2.943 3.496 4.922 4.002l3.864.875c3.313.506 6.763 2.438 6.763 6.578 0 5.152-5.106 7.131-9.523 7.131-5.52 0-9.293-2.576-9.752-8.373h2.898c.229 3.91 3.127 5.936 6.992 5.936 2.715 0 6.486-1.197 6.486-4.51 0-2.76-2.576-3.68-5.198-4.324l-3.727-.828c-3.772-1.012-6.624-2.301-6.624-6.348 0-4.832 4.738-6.672 8.924-6.672 4.739 0 8.512 2.484 8.695 7.637h-2.898zm27.14 16.793h-2.668v-4.279h-.093c-1.519 3.174-4.646 4.969-8.188 4.969-5.98 0-8.327-3.496-8.327-9.018v-15.41h2.898v15.457c.138 4.277 1.748 6.533 6.349 6.533 4.969 0 7.131-4.693 7.131-9.523v-12.467h2.898v23.738zm5.196-16.47c.275-5.566 4.186-7.959 9.615-7.959 4.186 0 8.74 1.289 8.74 7.637v12.605c0 1.105.553 1.748 1.703 1.748.32 0 .689-.092.92-.184v2.439c-.645.137-1.105.184-1.887.184-2.945 0-3.404-1.656-3.404-4.141h-.092c-2.025 3.082-4.096 4.83-8.65 4.83-4.369 0-7.957-2.162-7.957-6.947 0-6.67 6.486-6.9 12.742-7.637 2.393-.275 3.727-.598 3.727-3.221 0-3.91-2.807-4.875-6.211-4.875-3.588 0-6.256 1.656-6.348 5.52h-2.898zm15.457 3.496h-.092c-.367.691-1.656.92-2.438 1.059-4.924.875-11.043.828-11.043 5.475 0 2.898 2.578 4.693 5.291 4.693 4.416 0 8.328-2.807 8.281-7.453v-3.774zm8.738-19.873h2.898V182.4h-2.898v-32.848zm23.275 22.035c-.137 6.764 4.74 8.834 10.721 8.834 3.449 0 8.695-1.887 8.695-6.672 0-3.725-3.727-5.197-6.764-5.934l-7.314-1.795c-3.865-.965-7.408-2.807-7.408-7.912 0-3.221 2.07-9.248 11.318-9.248 6.486 0 12.191 3.498 12.145 10.215h-3.127c-.186-5.016-4.324-7.545-8.973-7.545-4.277 0-8.234 1.656-8.234 6.531 0 3.082 2.301 4.371 4.969 5.016l8.006 1.979c4.646 1.242 8.51 3.266 8.51 8.648 0 2.254-.92 9.385-12.559 9.385-7.775 0-13.48-3.496-13.111-11.502h3.126zm31.557-12.926h4.83v2.438h-4.83v16.01c0 1.887.275 2.99 2.346 3.129.828 0 1.656-.047 2.484-.139v2.484c-.873 0-1.701.092-2.576.092-3.863 0-5.197-1.287-5.152-5.336v-16.24h-4.141v-2.438h4.141v-7.131h2.898v7.131zm28.244 23.738h-2.668v-4.279h-.092c-1.518 3.174-4.646 4.969-8.189 4.969-5.98 0-8.326-3.496-8.326-9.018v-15.41h2.898v15.457c.139 4.277 1.748 6.533 6.348 6.533 4.969 0 7.131-4.693 7.131-9.523v-12.467h2.898v23.738zm26.358 0h-2.668v-4.51h-.092c-1.242 3.084-5.014 5.199-8.465 5.199-7.223 0-10.674-5.842-10.674-12.559s3.451-12.561 10.674-12.561c3.543 0 6.992 1.795 8.234 5.199h.092V149.55h2.898v32.849zm-11.225-1.748c6.164 0 8.326-5.199 8.326-10.121 0-4.924-2.162-10.121-8.326-10.121-5.521 0-7.775 5.197-7.775 10.121 0 4.922 2.253 10.121 7.775 10.121zM531 149.552h2.898v4.646H531v-4.646zm0 9.109h2.898v23.738H531v-23.738zm29.717 11.869c0 6.809-3.955 12.559-11.225 12.559s-11.225-5.75-11.225-12.559 3.955-12.561 11.225-12.561 11.225 5.753 11.225 12.561zm-19.551 0c0 5.061 2.76 10.121 8.326 10.121s8.326-5.061 8.326-10.121-2.76-10.121-8.326-10.121-8.326 5.061-8.326 10.121zm61.229-11.041c-1.105-5.061-5.291-7.959-10.076-7.959-8.695 0-12.375 7.268-12.375 14.445 0 7.176 3.68 14.445 12.375 14.445 6.072 0 9.938-4.693 10.535-10.535h3.129c-.875 8.051-5.98 13.203-13.664 13.203-10.352 0-15.504-8.143-15.504-17.113s5.152-17.115 15.504-17.115c6.211 0 12.375 3.727 13.203 10.629h-3.127zm29.07 11.041c0 6.809-3.955 12.559-11.225 12.559s-11.225-5.75-11.225-12.559 3.955-12.561 11.225-12.561 11.225 5.753 11.225 12.561zm-19.551 0c0 5.061 2.76 10.121 8.326 10.121s8.326-5.061 8.326-10.121-2.76-10.121-8.326-10.121-8.326 5.061-8.326 10.121zm44.76 11.869h-2.668v-4.51h-.092c-1.242 3.084-5.016 5.199-8.465 5.199-7.225 0-10.674-5.842-10.674-12.559s3.449-12.561 10.674-12.561c3.541 0 6.992 1.795 8.234 5.199h.092V149.55h2.898v32.849zm-11.225-1.748c6.164 0 8.326-5.199 8.326-10.121 0-4.924-2.162-10.121-8.326-10.121-5.521 0-7.775 5.197-7.775 10.121 0 4.922 2.254 10.121 7.775 10.121zm18.444-9.339c.047 4.232 2.254 9.34 7.82 9.34 4.232 0 6.533-2.484 7.453-6.074h2.898c-1.242 5.383-4.371 8.512-10.352 8.512-7.545 0-10.719-5.797-10.719-12.559 0-6.258 3.174-12.561 10.719-12.561 7.637 0 10.674 6.672 10.443 13.342h-18.262zm15.365-2.438c-.137-4.371-2.852-8.465-7.545-8.465-4.738 0-7.359 4.141-7.82 8.465h15.365z"/>
  <g fill="#2E3440">
    <path d="M466.561 122.64l-43.392-55.545v-15.41l48.091 62.169h25.844V26.31h-43.465l-9.397-9.399H506.5V122.64z"/>
    <path d="M421.44 16.911l43.394 55.541v15.41l-48.093-62.168h-25.842v87.545h43.463l9.4 9.401H381.5V16.911z"/>
  </g>
</svg>
